<?xml version="1.0" encoding="UTF-8" standalone="no"?>
<svg
   xmlns:dc="http://purl.org/dc/elements/1.1/"
   xmlns:cc="http://creativecommons.org/ns#"
   xmlns:rdf="http://www.w3.org/1999/02/22-rdf-syntax-ns#"
   xmlns:svg="http://www.w3.org/2000/svg"
   xmlns="http://www.w3.org/2000/svg"
   xmlns:sodipodi="http://sodipodi.sourceforge.net/DTD/sodipodi-0.dtd"
   xmlns:inkscape="http://www.inkscape.org/namespaces/inkscape"
   width="524.69348"
   height="166.80466"
   id="svg2"
   version="1.1"
   inkscape:version="0.91 r13725"
   sodipodi:docname="Burny_Pyro_2016_logo.svg">
  <metadata
     id="metadata26">
    <rdf:RDF>
      <cc:Work
         rdf:about="">
        <dc:format>image/svg+xml</dc:format>
        <dc:type
           rdf:resource="http://purl.org/dc/dcmitype/StillImage" />
        <dc:title></dc:title>
      </cc:Work>
    </rdf:RDF>
  </metadata>
  <defs
     id="defs24" />
  <sodipodi:namedview
     pagecolor="#ffffff"
     bordercolor="#666666"
     borderopacity="1"
     objecttolerance="10"
     gridtolerance="10"
     guidetolerance="10"
     inkscape:pageopacity="0"
     inkscape:pageshadow="2"
     inkscape:window-width="1680"
     inkscape:window-height="987"
     id="namedview22"
     showgrid="false"
     inkscape:zoom="0.70710678"
     inkscape:cx="81.921276"
     inkscape:cy="434.07368"
     inkscape:window-x="-8"
     inkscape:window-y="-8"
     inkscape:window-maximized="1"
     inkscape:current-layer="svg2"
     inkscape:snap-page="false"
     inkscape:object-nodes="true"
     inkscape:object-paths="true"
     inkscape:snap-smooth-nodes="true"
     fit-margin-top="0"
     fit-margin-left="0"
     fit-margin-right="0"
     fit-margin-bottom="0" />
  <path
     d="m 95.06171,67.809931 c 14.58502,-3.15503 21.55499,-11.04248 21.55499,-23.657532 0,-18.764954 -11.66998,-26.33496 -41.005002,-26.33496 l -47.320008,0 0,11.825012 8.105042,0 c 2.267456,0 3.077454,1.107482 3.077454,4.41748 l 0,72.067509 c 0,3.31494 -0.809998,4.57495 -3.077454,4.57495 l -8.105042,0 0,11.82507 47.160034,0 c 31.765016,0 45.539976,-8.67004 45.539976,-28.700073 0,-14.982422 -8.42999,-23.494996 -25.92999,-26.017456 m -33.387512,-38.16748 13.29004,0 c 13.61499,0 18.477478,4.41748 18.477478,17.192504 0,11.984986 -6.32251,17.029968 -19.450012,17.029968 l -12.317504,0 0,-34.222474 z m 14.75,81.059939 -14.75,0 0,-36.584963 15.722534,0 c 13.774964,0 19.932496,5.045044 19.932496,18.607544 0,13.087399 -5.670044,17.977419 -20.90503,17.977419"
     id="path4"
     style="fill:#fc4f48;fill-opacity:1"
     inkscape:connector-curvature="0" />
  <path
     inkscape:connector-curvature="0"
     id="path4146"
     style="fill:#fc4f48;fill-opacity:1;stroke:none;stroke-linecap:butt;stroke-linejoin:miter;stroke-opacity:1"
     d="m 196.76833,122.56151 12.32967,0 0,-12.95719 -7.067,0 c -1.9547,0 -2.55616,-1.03657 -2.55616,-5.18288 l 0,-65.995287 -30.22272,0 0,12.95719 7.36773,0 c 1.65398,0 2.55615,0.518288 2.55615,4.491826 l 0,29.024108 c 0,16.066913 -5.41303,25.050573 -15.48727,25.050573 -7.66846,0 -12.02895,-4.1463 -12.02895,-16.412447 l 0,-55.11125 -29.62128,0 0,12.95719 6.76628,0 c 1.50362,0 2.40579,0.518288 2.40579,4.491826 l 0,38.180522 c 0,21.422559 8.57062,30.751729 23.90753,30.751729 11.12678,0 19.39668,-5.35563 24.0579,-15.89415 l 0,15.37587 c 3.45832,-0.86382 10.2246,-1.72763 17.59233,-1.72763 z" />
  <path
     d="m 259.43775,36.287225 c -9.40003,0 -17.66498,5.52002 -21.39252,18.974976 l 0,-18.454956 c -3.72748,0.859986 -11.01996,1.724976 -18.95996,1.724976 l -13.1275,0 0,12.932496 7.61499,0 c 2.10998,0 2.755,1.037536 2.755,5.174988 l 0,48.467465 c 0,3.96753 -0.97253,4.48255 -2.755,4.48255 l -7.12751,0 0,12.9375 42.13501,0 0,-12.9375 -7.61749,0 c -1.78003,0 -2.755,-0.51502 -2.755,-4.48255 l 0,-26.389889 c 0,-17.590026 5.51001,-28.112548 16.20495,-28.112548 2.43256,0 4.21503,0.690002 5.35004,1.724976 -4.85999,1.550048 -7.78003,6.382508 -7.78003,11.037536 0,6.210022 5.02502,11.382508 11.02002,11.382508 9.23749,0 15.39502,-7.242554 15.39502,-18.110046 0,-12.41748 -7.29254,-20.352478 -18.96002,-20.352478"
     id="path8"
     style="fill:#fc4f48;fill-opacity:1"
     inkscape:connector-curvature="0" />
  <path
     d="m 362.80548,105.10791 0,-37.429997 c 0,-21.039978 -8.90997,-31.390014 -25.60498,-31.390014 -12.64252,0 -21.71753,5.692504 -26.73999,17.25 l 0,-16.72998 c -3.565,0.859986 -10.86004,1.722474 -18.79754,1.722474 l -18.35498,0 c 4.24499,1.965026 7.20501,9.465026 7.66748,12.955018 l 5.17504,-0.02002 c 2.10498,0 2.75495,1.037536 2.75495,5.175048 l 0,48.467471 c 0,3.96753 -0.97248,4.48254 -2.75495,4.48254 l -7.1325,0 0,12.9375 40.84246,0 0,-12.9375 -6.32251,0 c -1.78247,0 -2.755,-0.51501 -2.755,-4.48254 l 0,-26.217533 c 0,-18.799988 6.32251,-27.424988 17.18256,-27.424988 8.90997,0 12.96246,5.002502 12.96246,16.732482 l 0,36.910039 c 0,3.96753 -0.96997,4.48254 -2.755,4.48254 l -6.32001,0 0,12.9375 40.84002,0 0,-12.9375 -7.1325,0 c -1.78247,0 -2.75501,-0.51501 -2.75501,-4.48254"
     id="path10"
     style="fill:#fc4f48;fill-opacity:1"
     inkscape:connector-curvature="0" />
  <path
     d="m 407.08624,105.10791 0,-68.299993 c -3.72747,0.859986 -11.02002,1.722474 -18.96252,1.722474 l -12.96497,0 0,12.934998 6.32251,0 c 2.75501,0 3.56501,1.554992 3.56501,6.900024 l 0,46.742497 c 0,3.62255 -0.81,4.48254 -2.59253,4.48254 l -7.29499,0 0,12.9375 41.32752,0 0,-12.9375 -6.8075,0 c -1.78253,0 -2.59253,-0.85999 -2.59253,-4.48254"
     id="path12"
     style="fill:#fc4f48;fill-opacity:1"
     inkscape:connector-curvature="0" />
  <path
     d="m 496.40302,80.616205 c 0,-27.77002 -13.77503,-44.330018 -38.73248,-44.330018 -24.31,0 -41.00251,17.942504 -41.00251,44.157532 0,25.872441 14.42499,44.327511 43.10999,44.327511 20.41998,0 31.11749,-10.6925 35.49249,-24.14758 l -12.3175,-5.864991 c -3.72748,10.175051 -10.20746,16.215091 -21.39496,16.215091 -14.745,0 -22.03754,-10.3501 -22.52252,-26.045047 l 57.36749,0 0,-4.3125 z m -57.69251,-7.41748 c 0.97248,-16.557496 7.45252,-23.627502 18.96003,-23.627502 11.50744,0 16.36749,6.55249 16.69244,23.627502 l -35.65247,0 z"
     id="path14"
     style="fill:#fc4f48;fill-opacity:1"
     inkscape:connector-curvature="0" />
  <path
     d="m 458.32005,155.42259 c -48.77826,-5.79743 -94.96449,-6.95318 -147.22751,-6.35747 -15.43424,0.11238 -31.11668,0.55007 -46.80124,1.10521 -7.8405,0.29523 -15.6808,0.64801 -23.49008,1.03942 -7.80886,0.37908 -15.5887,0.78424 -23.30208,1.27964 -3.85836,0.259 -7.69878,0.50601 -11.5244,0.75874 -3.8233,0.25783 -7.62163,0.51666 -11.40499,0.77596 -3.78416,0.27943 -7.54302,0.55229 -11.27708,0.83115 -3.72931,0.28406 -7.50128,0.57143 -11.1944,0.76433 -14.82672,0.87719 -29.1679,1.31086 -42.76816,1.29616 -6.80034,-0.001 -13.41485,-0.0823 -19.80848,-0.30732 -6.39512,-0.1877 -12.575178,-0.49765 -18.506516,-0.89603 -11.8561,-0.77328 -22.715306,-1.94953 -32.297202,-3.41017 -9.573008,-1.55789 -17.896136,-3.2135 -24.64156,-5.21898 -3.373382,-0.98523 -6.363324,-1.98766 -8.931252,-2.96837 -2.567196,-1.00059 -4.703682,-2.00904 -6.401897,-2.90252 -1.698318,-0.89092 -2.955038,-1.68909 -3.78041,-2.25992 -0.814834,-0.58544 -1.235324,-0.89505 -1.235324,-0.89505 0,0 0.459486,0.21099 1.349384,0.60677 0.898356,0.37363 2.231122,0.8947 4.000442,1.44821 1.771985,0.55106 3.979357,1.09945 6.588425,1.6139 2.607974,0.54189 5.625986,1.02757 9.022448,1.43575 3.397196,0.3883 7.163446,0.74624 11.27209,1.05015 4.109138,0.29148 8.562118,0.49417 13.326828,0.59679 9.523378,0.29246 20.285074,0.27637 32.023898,0.0391 5.869576,-0.12354 11.989836,-0.32224 18.318656,-0.54266 6.32541,-0.26051 12.87408,-0.53471 19.59853,-0.8895 13.4543,-0.71668 27.64091,-1.60438 42.29131,-2.76385 7.36437,-0.58935 14.84427,-1.19168 22.41939,-1.79522 7.61143,-0.57448 15.31449,-1.1254 23.08209,-1.53606 7.76494,-0.47087 15.60074,-0.83629 23.46088,-1.18572 7.8669,-0.32911 15.76408,-0.5395 23.65828,-0.73999 15.79844,-0.39801 31.6019,-0.35809 47.14464,-0.11576 53.34511,1.23358 99.39144,5.41537 147.99196,15.2882 15.5041,3.14955 45.37195,13.93045 45.37195,13.93045 0,0 -30.70222,-7.2181 -46.32862,-9.07534 z"
     id="path18"
     style="fill:#297fc4;fill-opacity:1"
     inkscape:connector-curvature="0"
     sodipodi:nodetypes="accccccccccccccccccccccccccccccccaca" />
  <path
     d="m 509.17016,115.69379 c -6.71428,7.438 -13.04293,12.74097 -21.39624,15.57972 -17.31357,5.88376 -36.58247,2.43987 -54.83978,1.41575 -16.50839,-0.92602 -35.6723,-6.56509 -49.13226,-6.81765 -13.45752,-0.26246 -43.16659,-1.10262 -64.74856,-0.77817 -22.92049,0.34457 -53.07084,1.72307 -68.70836,2.89312 -15.625,1.21753 -31.2525,2.62744 -46.61748,4.20251 -3.84247,0.41003 -7.66498,0.8175 -11.47247,1.21997 -3.8075,0.42249 -7.59253,0.83752 -11.35505,1.25256 -7.51745,0.84998 -14.96496,1.78992 -22.34747,2.53992 -14.72748,1.55505 -29.0025,2.52759 -42.54749,3.19006 -13.54004,0.73999 -26.36999,0.79993 -38.207514,0.70252 -11.840026,-0.15002 -22.69751,-0.80005 -32.307496,-1.6676 -9.602478,-1.00244 -17.965026,-2.19494 -24.775024,-3.77746 -3.40747,-0.78247 -6.429992,-1.59753 -9.037476,-2.42249 -2.600006,-0.83496 -4.779998,-1.69751 -6.515014,-2.47998 -1.73999,-0.78247 -3.029998,-1.49255 -3.88498,-2.00756 C 0.434998,128.20153 0,127.92406 0,127.92406 c 0,0 0.462494,0.20252 1.359986,0.59253 0.902496,0.34742 2.244996,0.85498 4.022492,1.37 3.5625,1.02502 8.872528,2.04749 15.67752,2.72742 3.404968,0.3125 7.179992,0.58508 11.294982,0.78003 4.117492,0.17504 8.57251,0.27258 13.335022,0.255 4.76001,0.025 9.829956,-0.0273 15.172486,-0.18238 5.342468,-0.14502 10.960022,-0.44995 16.820008,-0.70496 11.722474,-0.53003 24.407464,-1.59753 37.827514,-2.6676 6.70245,-0.57739 13.58996,-1.23999 20.61999,-1.99243 7.03247,-0.76257 14.21997,-1.495 21.51496,-2.38757 14.55255,-1.75 29.80505,-3.6825 45.23254,-5.16993 15.45002,-1.55505 31.16248,-2.89001 46.88996,-3.91003 15.72754,-1.08252 31.47502,-1.68994 46.98254,-2.13 15.5025,-0.40747 30.76502,-0.5625 45.54498,-0.25 14.76752,0.29248 29.04998,0.78503 42.57252,1.70752 13.52252,0.92504 32.05562,2.61079 48.04734,4.28812 17.76226,1.86305 35.56795,9.29474 53.1938,6.41403 8.40111,-1.37305 14.9225,-5.21037 23.06152,-10.97003"
     id="path20"
     style="fill:#fc4f48;fill-opacity:1"
     inkscape:connector-curvature="0"
     sodipodi:nodetypes="caacaccccccccccccccccccccccccccccaac" />
  <path
     style="fill:#fc4f48;fill-opacity:1"
     inkscape:connector-curvature="0"
     d="m 401.07852,13.667879 c -1.13494,0.246845 -2.11428,0.880056 -2.5731,1.972076 -0.27636,0.662725 -0.6627,2.374541 -1.72254,1.93183 -0.5071,-0.209281 -0.49906,-0.936401 -0.44004,-1.389844 0.1262,-0.931035 0.54468,-1.781576 0.83178,-2.666998 0.29512,-0.917619 0.55002,-1.840604 0.73248,-2.79042 0.61176,-3.1445889 0.4427,-6.7667699 -1.78158,-9.2808309 -0.37564,-0.429296 -1.32276,-1.42204095 -1.94792,-1.44350595366 -0.38638,-0.0107299963 -0.006,0.44539400366 0.10194,0.59833100366 0.21734,0.313922 0.3998,0.65467495 0.5393,1.01152695 1.64474,4.196363 -2.40942,7.39193 -5.07372,9.8791609 -1.27716,1.193978 -2.29674,2.4604 -3.21436,3.938786 -0.0912,0.142204 -0.29246,0.619795 -0.5527,0.52052 -0.30856,-0.118056 -0.34076,-0.82371 -0.43736,-1.086654 -0.1824,-0.504422 -0.46416,-1.054457 -0.8264,-1.448872 -0.70026,-0.767366 -1.6796,-1.285203 -2.73944,-1.215442 -0.0404,0.0027 -0.1556,0.02146 -0.2978,0.05366 -0.22272,0.0483 -0.81836,0.126106 -0.65738,0.48564 0.0832,0.185132 0.32736,0.169036 0.50176,0.220014 2.23768,0.686873 2.1867,3.031899 1.8245,4.915433 -0.65468,3.428996 -2.46846,6.670178 -1.18056,10.195766 1.51862,4.156116 6.27306,6.75067 10.5875,6.036968 1.17788,-0.19318 2.53552,-0.574182 3.59266,-1.143 1.1242,-0.60638 2.35576,-1.435458 3.23312,-2.369174 1.1296,-1.199346 1.84866,-2.73676 2.06062,-4.365398 0.24954,-1.883534 -0.35148,-3.659744 -0.89882,-5.438636 -0.66004,-2.146478 -1.41936,-5.650602 1.32274,-6.699692 0.1342,-0.05366 0.40248,-0.09391 0.49638,-0.236113 0.34882,-0.520521 -1.32544,-0.217331 -1.48106,-0.185132 z"
     id="path4161" />
  <path
     style="fill:#297fc4;fill-opacity:1"
     id="path4174"
     d="m 134.69437,148.07501 c 0,0 1.15453,-0.19172 3.31483,-0.54719 1.07869,-0.17778 2.411,-0.35923 3.97417,-0.58958 1.5661,-0.20079 3.37096,-0.43094 5.38884,-0.64908 4.03102,-0.48803 8.94416,-0.87478 14.56985,-1.18938 5.62887,-0.34826 11.98204,-0.56335 18.90959,-0.59371 6.92776,-0.0642 14.42483,0.0398 22.35635,0.29804 3.96566,0.14522 8.03092,0.30296 12.19038,0.52272 4.15938,0.22113 8.40518,0.48216 12.7236,0.76577 8.62728,0.6096 17.54318,1.34259 26.5867,2.26463 9.04426,0.87788 18.21694,1.95959 27.38472,3.11028 4.58188,0.5856 9.16064,1.20494 13.71918,1.84529 4.55894,0.63311 9.09948,1.27998 13.59632,1.97628 2.2488,0.35485 4.48772,0.70173 6.71764,1.0512 2.22832,0.35232 4.4419,0.70392 6.64672,1.05501 2.20422,0.36294 4.39394,0.72069 6.56882,1.08065 2.1718,0.36277 4.36844,0.72971 6.52384,1.03712 8.64778,1.29439 17.03422,2.30317 25.00976,3.01006 3.98758,0.35714 7.87042,0.6575 11.63128,0.86193 3.75978,0.2264 7.39988,0.3698 10.89882,0.44822 6.99272,0.17032 13.42214,0.0519 19.11752,-0.30046 5.69526,-0.40987 10.6628,-0.94279 14.72362,-1.76386 2.0299,-0.40024 3.83584,-0.83073 5.3932,-1.27069 1.55796,-0.45166 2.86378,-0.93058 3.90656,-1.36515 1.04274,-0.43306 1.82162,-0.83496 2.33562,-1.12626 0.5086,-0.30041 0.77146,-0.45984 0.77146,-0.45984 0,0 -0.28054,0.0996 -0.82316,0.2848 -0.54644,0.17184 -1.35536,0.40725 -2.42194,0.63873 -1.06802,0.2299 -2.3912,0.43533 -3.94816,0.59972 -1.55774,0.18054 -3.35296,0.30656 -5.36602,0.36721 -2.01244,0.049 -4.23968,0.0607 -6.66488,0.0228 -2.4248,-0.0453 -5.04654,-0.16068 -7.84582,-0.35119 -5.59962,-0.32954 -11.90912,-0.90514 -18.77992,-1.66188 -3.43524,-0.38124 -7.01354,-0.81974 -10.71298,-1.28195 -3.6953,-0.48553 -7.52084,-0.99084 -11.44518,-1.55265 -7.8515,-1.12807 -16.1234,-2.39495 -24.65294,-3.84559 -4.28724,-0.73301 -8.64154,-1.47972 -13.05162,-2.23215 -4.43288,-0.7373 -8.92074,-1.4656 -13.45384,-2.11505 -4.52834,-0.68462 -9.1038,-1.31113 -13.69436,-1.92955 -4.5956,-0.60686 -9.2152,-1.1457 -13.83358,-1.67857 -9.24282,-1.06454 -18.51156,-1.87255 -27.6381,-2.54816 -9.1345,-0.63334 -18.13422,-1.10226 -26.85032,-1.31828 -4.36046,-0.11928 -8.65022,-0.1775 -12.84686,-0.18252 -4.19694,8.6e-4 -8.3081,0.0252 -12.30842,0.13306 -8.00102,0.1922 -15.56328,0.59924 -22.53928,1.16067 -6.97323,0.59394 -13.35823,1.33207 -19.00231,2.13497 -5.63589,0.84599 -10.53753,1.74324 -14.55386,2.61811 -2.00594,0.42208 -3.7912,0.88159 -5.34379,1.25545 -1.55004,0.41082 -2.8692,0.74323 -3.93043,1.0442 -2.11779,0.62727 -3.25162,0.96587 -3.25162,0.96587"
     inkscape:connector-curvature="0" />
  <path
     style="fill:#fc4f48;fill-opacity:1"
     id="path4176"
     d="m 428.56156,133.60575 c -28.1214,-3.96355 -56.54428,-5.46799 -84.88373,-7.31159 -26.51158,-1.72469 -53.12078,-1.68202 -79.62573,-3.50587 -7.75055,-0.53333 -16.0374,-1.31304 -23.20504,-2.17382 -7.16552,-0.89221 -13.70098,-2.01496 -19.4653,-3.1824 -5.75046,-1.2471 -10.73626,-2.52308 -14.75416,-3.92557 -2.01106,-0.69619 -3.78656,-1.38565 -5.3098,-2.05283 -1.51805,-0.67262 -2.77965,-1.33316 -3.77705,-1.91592 -1.00044,-0.58309 -1.73318,-1.09264 -2.21575,-1.45675 l -0.71789,-0.57102 c 0,0 0.2663,0.15174 0.78329,0.44442 0.52293,0.2677 1.30147,0.66045 2.34315,1.08712 2.08826,0.85087 5.23575,1.81874 9.31305,2.68442 2.04206,0.41669 4.3111,0.83473 6.7916,1.22971 2.4834,0.3833 5.1767,0.74344 8.06432,1.056 2.8832,0.33771 5.95956,0.65045 9.20822,0.92065 3.24794,0.27615 6.67368,0.47592 10.24288,0.72177 7.1413,0.48003 14.90312,0.70586 23.1106,0.98004 4.1021,0.1114 8.32226,0.1847 12.63496,0.21426 4.31492,0.0237 8.72172,0.0759 13.20472,0.0401 8.9409,-0.0532 18.31864,-0.1673 27.77166,-0.005 9.47136,0.12358 19.13988,0.26777 28.68904,0.85621 27.32783,1.68401 54.63617,4.07883 81.78212,7.64867 10.5136,1.38259 21.05624,2.83426 31.36311,5.32741 15.18063,3.67208 30.1242,8.45262 44.67291,14.13336 6.89569,2.69252 20.11074,9.42126 20.11074,9.42126 0,0 -17.92172,-5.06464 -27.00857,-7.07531 -24.38937,-4.84031 -45.87101,-10.31203 -69.12335,-13.58932 z"
     inkscape:connector-curvature="0"
     sodipodi:nodetypes="aaaccccccccccccccccccaaaacca" />
</svg>
