<?xml version="1.0" encoding="UTF-8" standalone="no"?>
<!-- Generator: Adobe Illustrator 19.0.0, SVG Export Plug-In . SVG Version: 6.00 Build 0)  -->

<svg
   xmlns:dc="http://purl.org/dc/elements/1.1/"
   xmlns:cc="http://creativecommons.org/ns#"
   xmlns:rdf="http://www.w3.org/1999/02/22-rdf-syntax-ns#"
   xmlns:svg="http://www.w3.org/2000/svg"
   xmlns="http://www.w3.org/2000/svg"
   xmlns:sodipodi="http://sodipodi.sourceforge.net/DTD/sodipodi-0.dtd"
   xmlns:inkscape="http://www.inkscape.org/namespaces/inkscape"
   version="1.1"
   id="Layer_1"
   x="0px"
   y="0px"
   viewBox="1410 -238.8 857.925 317.45"
   xml:space="preserve"
   inkscape:version="0.91 r13725"
   sodipodi:docname="Hale_2016.svg"
   width="857.92499"
   height="317.45001"><metadata
     id="metadata117"><rdf:RDF><cc:Work
         rdf:about=""><dc:format>image/svg+xml</dc:format><dc:type
           rdf:resource="http://purl.org/dc/dcmitype/StillImage" /><dc:title></dc:title></cc:Work></rdf:RDF></metadata><defs
     id="defs115" /><sodipodi:namedview
     pagecolor="#ffffff"
     bordercolor="#666666"
     borderopacity="1"
     objecttolerance="10"
     gridtolerance="10"
     guidetolerance="10"
     inkscape:pageopacity="0"
     inkscape:pageshadow="2"
     inkscape:window-width="1680"
     inkscape:window-height="987"
     id="namedview113"
     showgrid="false"
     inkscape:zoom="1"
     inkscape:cx="428.96249"
     inkscape:cy="158.72501"
     inkscape:window-x="-8"
     inkscape:window-y="-8"
     inkscape:window-maximized="1"
     inkscape:current-layer="Layer_1"
     fit-margin-top="0"
     fit-margin-left="0"
     fit-margin-right="0"
     fit-margin-bottom="0" /><style
     type="text/css"
     id="style3">
	.st0{fill:#283681;}
	.st1{fill:#FDFDFE;}
	.st2{fill:#FEFEFF;}
	.st3{fill:#FEFEFE;}
	.st4{fill:#86181E;}
	.st5{fill:#F9F9FB;}
	.st6{fill:#FAFBFC;}
	.st7{fill:#F8F8FB;}
	.st8{fill:#F7F8FA;}
	.st9{fill:#F8F9FB;}
	.st10{fill:#FBFBFD;}
	.st11{fill:#F9FAFC;}
	.st12{fill:#FAFAFC;}
	.st13{fill:#F4F5F9;}
	.st14{fill:#F7F8FB;}
	.st15{fill:#FBFCFD;}
	.st16{fill:#FFFFFF;}
	.st17{fill:#2B3983;}
	.st18{fill:#2A3781;}
	.st19{fill:#303D85;}
	.st20{fill:#38468B;}
	.st21{fill:#39488C;}
	.st22{fill:#851820;}
</style><g
     id="Layer_2"
     transform="matrix(0.25,0,0,0.25,1057.5,-179.1)"><path
       style="fill:#283681"
       d="m 1410,-238.8 3431.7,0 0,1269.8 -3431.7,0 z"
       id="rect6"
       inkscape:connector-curvature="0" /></g><g
     id="Layer_1_1_"
     transform="matrix(0.25,0,0,0.25,1057.5,-179.1)"><path
       class="st4"
       d="m 2776.9,948.5 c 0,6.4 0,11.6 0,17.4 -435.1,0 -869.5,0 -1303.9,0 -2.1,-7.7 -2.7,-1129.8 -0.7,-1141.8 0.2,-0.2 0.5,-0.5 0.7,-0.7 0.3,-0.2 0.5,-0.4 0.8,-0.5 2,-0.2 4,-0.6 5.9,-0.6 430.3,0.1 860.6,0.2 1290.9,0.3 0.9,0 1.6,0 3.7,0 0,5.6 0,12.3 0,19.5 -25.1,0.4 -50,0.1 -74.8,0.2 -25.3,0 -50.7,0 -76,0 -25,0 -50,0 -75,0 -25.3,0 -50.7,0 -76,0 -25,0 -50,0 -75,0 -25,0 -50,0 -75,0 -25.3,0 -50.7,0 -76,0 -25,0 -50,0 -75,0 -25.3,0 -50.7,0 -76,0 -25,0 -50,0 -75,0 -25.3,0 -50.7,0 -76,0 -25,0 -50,0 -75,0 -25,0 -50,0 -75,0 -25.3,0 -50.7,0 -76,0 -25,0 -50,0 -75,0 -25.3,0 -50.7,0 -76,0 -24.9,0 -49.9,0 -73.5,0 -1.5,1.3 -1.8,1.5 -2,1.8 -0.2,0.3 -0.4,0.6 -0.4,0.9 -0.3,2.3 -0.7,4.6 -0.7,6.9 0,364 0.1,728 0.2,1091.9 0,1 0.5,1.9 1,3.6 2.3,0.3 4.8,0.8 7.4,1 3.3,0.2 6.7,0.1 10,0.1 417.3,0 834.6,0 1251.9,0 15.5,0 9.9,0 15.5,0 z"
       id="path25"
       inkscape:connector-curvature="0"
       style="fill:#86181e" /><path
       class="st4"
       d="m 3484.1,-177.4 c 430.6,0 861.3,0 1291.9,0 1.3,0 2.6,0.4 3.6,0.5 0.5,0.5 0.8,0.7 1,0.9 0.2,0.2 0.5,0.5 0.5,0.8 0.3,1.6 0.7,3.3 0.7,4.9 0,377.6 0,755.3 -0.1,1132.9 0,1.3 -0.4,2.6 -0.6,3.5 -0.5,0.6 -0.7,0.8 -1,1.1 -0.2,0.2 -0.5,0.5 -0.8,0.6 -1,0.3 -1.9,0.6 -2.9,0.6 -431,0.1 -861.9,0.1 -1292.9,0.1 -1.7,0 -5,0 -5,0 l -2.3,0 c 0,-4.7 0,-11.4 0,-17.7 428.4,0 856.2,0 1282.6,0 1.6,-1.4 1.9,-1.6 2.1,-1.9 0.2,-0.2 0.4,-0.6 0.5,-0.9 0.3,-2 0.7,-3.9 0.7,-5.9 0,-364.6 0,-729.3 -0.1,-1093.9 0,-1.3 -0.5,-2.6 -1,-5.4 -42.3,-0.9 -84.8,-0.3 -127.3,-0.4 -42.7,-0.1 -85.3,0 -128,0 -43,0 -86,0 -129,0 -42.7,0 -85.3,0 -128,0 -42.7,0 -85.3,0 -128,0 -42.7,0 -85.3,0 -128,0 -42.7,0 -85.3,0 -128,0 -43,0 -86,0 -129,0 -42.7,0 -85.3,0 -128,0 -42.6,0 -85.3,0 -128.9,0 0,-6.5 0,-13.8 0,-19.8"
       id="path23"
       inkscape:connector-curvature="0"
       style="fill:#86181e" /></g><path
     style="fill:#851820"
     d="m 1809.7,-229.3 2.15,4.325 4.775,0.7 -3.475,3.375 0.825,4.775 -4.275,-2.25 -4.3,2.25 0.825,-4.775 -3.475,-3.375 4.8,-0.7 z"
     id="polygon93"
     inkscape:connector-curvature="0" /><path
     style="fill:#851820"
     d="m 1780.025,-229.3 2.125,4.325 4.8,0.7 -3.475,3.375 0.825,4.775 -4.275,-2.25 -4.3,2.25 0.825,-4.775 -3.475,-3.375 4.8,-0.7 z"
     id="polygon95"
     inkscape:connector-curvature="0" /><path
     style="fill:#851820"
     d="m 1838.775,-229.3 2.15,4.325 4.8,0.7 -3.475,3.375 0.825,4.775 -4.3,-2.25 -4.275,2.25 0.8,-4.775 -3.45,-3.375 4.775,-0.7 z"
     id="polygon97"
     inkscape:connector-curvature="0" /><path
     style="fill:#851820"
     d="m 1868.775,-229.3 2.15,4.325 4.8,0.7 -3.475,3.375 0.825,4.775 -4.3,-2.25 -4.275,2.25 0.8,-4.775 -3.45,-3.375 4.775,-0.7 z"
     id="polygon99"
     inkscape:connector-curvature="0" /><path
     style="fill:#851820"
     d="m 1897.975,-229.3 2.15,4.325 4.8,0.7 -3.475,3.375 0.825,4.775 -4.3,-2.25 -4.275,2.25 0.825,-4.775 -3.475,-3.375 4.8,-0.7 z"
     id="polygon101"
     inkscape:connector-curvature="0" /><path
     style="fill:#851820"
     d="m 1780.325,52.324997 2.125,4.35 4.8,0.7 -3.475,3.375 0.825,4.775 -4.275,-2.25 -4.3,2.25 0.825,-4.775 -3.475,-3.375 4.8,-0.7 z"
     id="polygon103"
     inkscape:connector-curvature="0" /><path
     style="fill:#851820"
     d="m 1809.825,52.324997 2.15,4.35 4.775,0.7 -3.475,3.375 0.825,4.775 -4.275,-2.25 -4.3,2.25 0.825,-4.775 -3.475,-3.375 4.8,-0.7 z"
     id="polygon105"
     inkscape:connector-curvature="0" /><path
     style="fill:#851820"
     d="m 1838.975,52.324997 2.15,4.35 4.8,0.7 -3.475,3.375 0.825,4.775 -4.3,-2.25 -4.275,2.25 0.825,-4.775 -3.475,-3.375 4.8,-0.7 z"
     id="polygon107"
     inkscape:connector-curvature="0" /><path
     style="fill:#851820"
     d="m 1868.95,52.324997 2.125,4.35 4.8,0.7 -3.475,3.375 0.825,4.775 -4.275,-2.25 -4.3,2.25 0.825,-4.775 -3.475,-3.375 4.8,-0.7 z"
     id="polygon109"
     inkscape:connector-curvature="0" /><path
     style="fill:#851820"
     d="m 1898.275,52.324997 2.15,4.35 4.8,0.7 -3.475,3.375 0.825,4.775 -4.3,-2.25 -4.275,2.25 0.8,-4.775 -3.45,-3.375 4.775,-0.7 z"
     id="polygon111"
     inkscape:connector-curvature="0" /><flowRoot
     xml:space="preserve"
     id="flowRoot4245"
     style="font-style:normal;font-variant:normal;font-weight:normal;font-stretch:normal;font-size:10px;line-height:125%;font-family:sans-serif;-inkscape-font-specification:'sans-serif, Normal';text-align:start;letter-spacing:0px;word-spacing:1px;writing-mode:lr-tb;text-anchor:start;fill:#000000;fill-opacity:1;stroke:none;stroke-width:1px;stroke-linecap:butt;stroke-linejoin:miter;stroke-opacity:1"
     transform="matrix(0.25,0,0,0.25,1057.5,-179.1)"><flowRegion
       id="flowRegion4247"><rect
         id="rect4249"
         width="419.99908"
         height="30.731642"
         x="737.55939"
         y="183.94872" /></flowRegion><flowPara
       id="flowPara4251" /></flowRoot><g
     style="font-style:normal;font-variant:normal;font-weight:bold;font-stretch:normal;font-size:640.24871826px;line-height:125%;font-family:'Akzidenz-Grotesk BQ Extended';-inkscape-font-specification:'Akzidenz-Grotesk BQ Extended Bold';text-align:start;letter-spacing:0px;word-spacing:4.44617128px;writing-mode:lr-tb;text-anchor:start;fill:#ffffff;fill-opacity:1;stroke:none;stroke-width:1px;stroke-linecap:butt;stroke-linejoin:miter;stroke-opacity:1"
     id="text4253"
     transform="matrix(0.25,0,0,0.25,1057.5,-179.1)"><path
       d="m 2234.5222,454.89059 0,-452.0155906 -163.9037,0 0,164.5439206 -197.1966,0 0,-164.5439206 -163.2634,0 0,452.0155906 162.6231,0 0,-173.5074 197.8369,0 0,173.5074 163.9037,0 z"
       id="path4206"
       inkscape:connector-curvature="0" /><path
       d="M 3092.0997,454.89059 2896.1836,2.8749994 l -184.3916,0 -195.2759,452.0155906 177.9892,0 24.3294,-73.6286 172.8672,0 24.3294,73.6286 176.0684,0 z m -234.331,-173.5074 -105.0008,0 51.8601,-153.01944 53.1407,153.01944 z"
       id="path4208"
       inkscape:connector-curvature="0" /><path
       d="m 3767.8367,454.89059 0,-110.12278 -231.1298,0 0,-341.8928106 -162.6232,0 0,452.0155906 393.753,0 z"
       id="path4210"
       inkscape:connector-curvature="0" /><path
       d="m 4541.5416,454.89059 0,-102.43979 -320.7646,0 0,-72.34811 291.3132,0 0,-101.79954 -291.3132,0 0,-74.26885 315.0024,0 0,-101.1593006 -476.9853,0 0,452.0155906 482.7475,0 z"
       id="path4212"
       inkscape:connector-curvature="0" /></g><g
     style="font-style:normal;font-variant:normal;font-weight:bold;font-stretch:normal;font-size:195.36424255px;line-height:125%;font-family:MetaPro;-inkscape-font-specification:'MetaPro Bold';text-align:start;letter-spacing:4.0972209px;word-spacing:1.35669613px;writing-mode:lr-tb;text-anchor:start;fill:#ffffff;fill-opacity:1;stroke:none;stroke-width:1px;stroke-linecap:butt;stroke-linejoin:miter;stroke-opacity:1"
     id="text4257"
     transform="matrix(0.25,0,0,0.25,1057.5,-179.1)"><path
       d="m 1863.023,786.39459 -12.1126,-135.77815 -34.7748,0 -18.3642,67.40067 c -2.149,8.00993 -3.7119,15.04304 -4.8841,22.07616 -1.1722,-7.03312 -2.149,-11.72186 -4.6888,-21.49007 l -17.7781,-67.98676 -34.9702,0 -12.6987,135.77815 27.1556,0 4.6888,-70.91722 c 0.5861,-8.40066 0.9768,-16.41059 0.9768,-24.42053 1.3675,7.81457 3.7119,17.38742 5.4702,24.0298 l 19.3411,71.30795 23.2483,0 21.4901,-74.23841 c 2.3443,-8.2053 3.5165,-13.0894 5.0794,-20.90397 0,7.22847 0.3908,14.06622 0.9769,22.66225 l 5.0794,72.48013 26.7649,0 z"
       id="path4157"
       inkscape:connector-curvature="0" /><path
       d="m 1994.1314,786.39459 -42.7848,-136.16887 -29.5,0 -44.543,136.16887 28.5232,0 9.5728,-32.2351 39.8543,0 9.5729,32.2351 29.3046,0 z m -45.5198,-54.89735 -26.5696,0 c 2.9305,-8.98676 4.6888,-15.43378 7.2285,-25.20199 2.5397,-10.15894 6.447,-26.17881 6.447,-26.17881 0,0 4.1027,17.77815 5.4702,24.02981 2.9305,13.0894 7.4239,27.35099 7.4239,27.35099 z"
       id="path4159"
       inkscape:connector-curvature="0" /><path
       d="m 2117.3612,786.39459 -48.255,-72.87086 43.3708,-62.90729 -33.6026,0 -38.6821,61.93047 0,-61.93047 -27.9371,0 0,135.77815 27.9371,0 0,-70.91722 41.2218,70.91722 35.9471,0 z"
       id="path4161"
       inkscape:connector-curvature="0" /><path
       d="m 2212.2356,786.39459 0,-23.44371 -51.3808,0 0,-36.33775 38.4868,0 0,-22.27152 -38.8775,0 0,-31.45364 46.4967,0 3.5165,-22.27153 -77.3642,0 0,135.77815 79.1225,0 z"
       id="path4163"
       inkscape:connector-curvature="0" /><path
       d="m 2386.9611,786.39459 -42.7848,-136.16887 -29.5,0 -44.543,136.16887 28.5231,0 9.5729,-32.2351 39.8543,0 9.5728,32.2351 29.3047,0 z m -45.5199,-54.89735 -26.5695,0 c 2.9304,-8.98676 4.6887,-15.43378 7.2285,-25.20199 2.5397,-10.15894 6.447,-26.17881 6.447,-26.17881 0,0 4.1026,17.77815 5.4702,24.02981 2.9304,13.0894 7.4238,27.35099 7.4238,27.35099 z"
       id="path4165"
       inkscape:connector-curvature="0" /><path
       d="m 2500.4684,742.04691 0,-91.43047 -27.7418,0 0,86.93709 c 0,7.22848 0,9.18212 -0.3907,12.11258 -1.1722,9.96358 -8.7914,15.82451 -20.7086,15.82451 -8.9867,0 -15.4338,-3.32119 -18.5596,-9.37749 -1.5629,-2.93046 -2.3444,-7.81457 -2.3444,-16.21523 l 0,-89.28146 -27.9371,0 0,94.5563 c 0,13.0894 1.3676,18.5596 5.861,25.59271 7.6192,11.91722 22.8576,18.16888 43.5662,18.16888 29.3046,0 42.5894,-14.84768 46.106,-25.59272 1.9536,-5.86093 2.149,-8.40066 2.149,-21.2947 z"
       id="path4167"
       inkscape:connector-curvature="0" /><path
       d="m 2628.1304,743.60982 c 0,-20.12251 -12.1126,-34.3841 -34.3841,-40.4404 l -16.4106,-4.49337 c -11.3311,-3.12583 -15.043,-6.64239 -15.043,-13.6755 0,-9.18212 7.8145,-15.62914 18.9503,-15.62914 10.1589,0 19.3411,2.93046 31.649,10.35431 l 12.8941,-19.53643 c -11.9173,-8.59603 -28.7186,-13.6755 -45.3245,-13.6755 -28.7186,0 -48.6457,17.19206 -48.6457,42.00332 0,7.6192 1.9536,14.65231 5.6655,20.70861 4.8841,8.20529 13.2848,13.48013 26.7649,17.19205 l 15.0431,4.10265 c 12.1125,3.32119 17.7781,8.79139 17.7781,17.58278 0,12.11258 -8.2053,18.5596 -23.8344,18.5596 -13.6755,0 -24.6159,-4.29801 -37.3146,-10.94039 l -10.1589,21.2947 c 13.6755,7.81457 30.8675,12.30795 46.3013,12.30795 33.798,0 56.0695,-18.16888 56.0695,-45.71524 z"
       id="path4169"
       inkscape:connector-curvature="0" /><path
       d="m 2737.9167,650.61644 -97.8775,0 0,22.66226 33.2119,0 0,113.11589 27.7417,0 0,-113.11589 32.4305,0 4.4934,-22.66226 z"
       id="path4171"
       inkscape:connector-curvature="0" /><path
       d="m 2852.3855,786.39459 c 0,0 -24.8112,-42.98013 -32.6258,-52.74834 -1.7583,-2.34437 -2.9304,-3.51656 -5.6655,-5.66557 16.8013,-0.39072 30.2814,-17.19205 30.2814,-37.50993 0,-23.83444 -15.8245,-39.85431 -39.8543,-39.85431 l -50.5993,0 0,135.77815 26.7649,0 0,-56.65563 c 1.7583,0.19537 2.9304,0.58609 4.298,1.17219 4.8841,2.149 8.9867,8.79139 22.4669,33.21192 5.2748,9.57285 7.4238,13.28477 12.6986,22.27152 l 32.2351,0 z m -36.7284,-95.33775 c 0,5.66556 -1.9537,10.54967 -5.2749,13.6755 -3.7119,3.32119 -8.7914,4.49338 -20.5132,4.49338 l -9.1821,0 0,-36.72848 9.7682,0 c 6.6424,0 12.3079,0.78146 15.4338,1.95364 6.447,2.34437 9.7682,8.2053 9.7682,16.60596 z"
       id="path4173"
       inkscape:connector-curvature="0" /><path
       d="m 2975.6061,786.39459 -42.7848,-136.16887 -29.5,0 -44.543,136.16887 28.5232,0 9.5728,-32.2351 39.8543,0 9.5729,32.2351 29.3046,0 z m -45.5199,-54.89735 -26.5695,0 c 2.9305,-8.98676 4.6887,-15.43378 7.2285,-25.20199 2.5397,-10.15894 6.447,-26.17881 6.447,-26.17881 0,0 4.1026,17.77815 5.4702,24.02981 2.9305,13.0894 7.4238,27.35099 7.4238,27.35099 z"
       id="path4175"
       inkscape:connector-curvature="0" /><path
       d="m 3070.3126,763.73234 -48.6457,0 0,-113.1159 -27.9371,0 0,135.77815 71.6987,0 4.8841,-22.66225 z"
       id="path4177"
       inkscape:connector-curvature="0" /><path
       d="m 3119.4536,786.39459 0,-135.77815 -28.5232,0 0,135.77815 28.5232,0 z"
       id="path4179"
       inkscape:connector-curvature="0" /><path
       d="m 3254.6157,786.39459 -42.7847,-136.16887 -29.5,0 -44.5431,136.16887 28.5232,0 9.5729,-32.2351 39.8543,0 9.5728,32.2351 29.3046,0 z m -45.5198,-54.89735 -26.5696,0 c 2.9305,-8.98676 4.6888,-15.43378 7.2285,-25.20199 2.5398,-10.15894 6.447,-26.17881 6.447,-26.17881 0,0 4.1027,17.77815 5.4702,24.02981 2.9305,13.0894 7.4239,27.35099 7.4239,27.35099 z"
       id="path4181"
       inkscape:connector-curvature="0" /><path
       d="m 3422.1006,775.84492 0,-64.86093 -52.553,0 3.5165,22.27153 20.7086,0 0,30.86755 c -4.4933,2.34437 -9.3774,3.32119 -15.4337,3.32119 -8.7914,0 -16.2153,-2.7351 -21.2947,-7.6192 -6.8378,-6.83775 -10.159,-19.34106 -10.159,-38.68212 0,-20.31789 2.3444,-34.9702 11.5265,-43.7616 4.6888,-4.49337 11.5265,-6.83774 19.5364,-6.83774 10.3543,0 19.5365,3.32119 28.3279,10.54967 l 14.4569,-16.99669 c -11.9172,-10.35431 -26.7649,-15.62914 -43.1755,-15.62914 -12.894,0 -23.053,2.93046 -33.0165,9.57284 -18.9504,12.69868 -28.3279,33.01656 -28.3279,61.73511 0,20.31788 4.4934,34.77483 14.457,47.47351 10.9404,14.06622 25.9834,20.70861 46.3013,20.70861 16.0199,0 31.2583,-3.90729 45.1292,-12.11259 z"
       id="path4183"
       inkscape:connector-curvature="0" /><path
       d="m 3552.0795,786.39459 c 0,0 -24.8112,-42.98013 -32.6258,-52.74834 -1.7583,-2.34437 -2.9305,-3.51656 -5.6656,-5.66557 16.8014,-0.39072 30.2815,-17.19205 30.2815,-37.50993 0,-23.83444 -15.8245,-39.85431 -39.8543,-39.85431 l -50.5994,0 0,135.77815 26.7649,0 0,-56.65563 c 1.7583,0.19537 2.9305,0.58609 4.2981,1.17219 4.8841,2.149 8.9867,8.79139 22.4668,33.21192 5.2749,9.57285 7.4239,13.28477 12.6987,22.27152 l 32.2351,0 z m -36.7285,-95.33775 c 0,5.66556 -1.9536,10.54967 -5.2748,13.6755 -3.7119,3.32119 -8.7914,4.49338 -20.5132,4.49338 l -9.1822,0 0,-36.72848 9.7683,0 c 6.6423,0 12.3079,0.78146 15.4337,1.95364 6.447,2.34437 9.7682,8.2053 9.7682,16.60596 z"
       id="path4185"
       inkscape:connector-curvature="0" /><path
       d="m 3652.8332,786.39459 0,-23.44371 -51.3808,0 0,-36.33775 38.4867,0 0,-22.27152 -38.8774,0 0,-31.45364 46.4967,0 3.5165,-22.27153 -77.3642,0 0,135.77815 79.1225,0 z"
       id="path4187"
       inkscape:connector-curvature="0" /><path
       d="m 3778.2241,786.39459 -42.7847,-136.16887 -29.5,0 -44.5431,136.16887 28.5232,0 9.5729,-32.2351 39.8543,0 9.5728,32.2351 29.3046,0 z m -45.5198,-54.89735 -26.5696,0 c 2.9305,-8.98676 4.6888,-15.43378 7.2285,-25.20199 2.5398,-10.15894 6.447,-26.17881 6.447,-26.17881 0,0 4.1027,17.77815 5.4702,24.02981 2.9305,13.0894 7.4239,27.35099 7.4239,27.35099 z"
       id="path4189"
       inkscape:connector-curvature="0" /><path
       d="m 3870.6748,650.61644 -97.8775,0 0,22.66226 33.2119,0 0,113.11589 27.7417,0 0,-113.11589 32.4305,0 4.4934,-22.66226 z"
       id="path4191"
       inkscape:connector-curvature="0" /><path
       d="m 4037.6042,786.39459 -42.7848,-136.16887 -29.5,0 -44.5431,136.16887 28.5232,0 9.5729,-32.2351 39.8543,0 9.5728,32.2351 29.3047,0 z m -45.5199,-54.89735 -26.5696,0 c 2.9305,-8.98676 4.6888,-15.43378 7.2285,-25.20199 2.5398,-10.15894 6.447,-26.17881 6.447,-26.17881 0,0 4.1027,17.77815 5.4702,24.02981 2.9305,13.0894 7.4239,27.35099 7.4239,27.35099 z"
       id="path4193"
       inkscape:connector-curvature="0" /><path
       d="m 4155.7544,775.84492 0,-64.86093 -52.553,0 3.5165,22.27153 20.7087,0 0,30.86755 c -4.4934,2.34437 -9.3775,3.32119 -15.4338,3.32119 -8.7914,0 -16.2153,-2.7351 -21.2947,-7.6192 -6.8378,-6.83775 -10.159,-19.34106 -10.159,-38.68212 0,-20.31789 2.3444,-34.9702 11.5265,-43.7616 4.6888,-4.49337 11.5265,-6.83774 19.5365,-6.83774 10.3543,0 19.5364,3.32119 28.3278,10.54967 l 14.4569,-16.99669 c -11.9172,-10.35431 -26.7649,-15.62914 -43.1755,-15.62914 -12.894,0 -23.053,2.93046 -33.0165,9.57284 -18.9504,12.69868 -28.3278,33.01656 -28.3278,61.73511 0,20.31788 4.4933,34.77483 14.4569,47.47351 10.9404,14.06622 25.9835,20.70861 46.3013,20.70861 16.0199,0 31.2583,-3.90729 45.1292,-12.11259 z"
       id="path4195"
       inkscape:connector-curvature="0" /><path
       d="m 4288.859,786.39459 -42.7847,-136.16887 -29.5,0 -44.5431,136.16887 28.5232,0 9.5728,-32.2351 39.8543,0 9.5729,32.2351 29.3046,0 z m -45.5198,-54.89735 -26.5696,0 c 2.9305,-8.98676 4.6888,-15.43378 7.2285,-25.20199 2.5397,-10.15894 6.447,-26.17881 6.447,-26.17881 0,0 4.1027,17.77815 5.4702,24.02981 2.9305,13.0894 7.4239,27.35099 7.4239,27.35099 z"
       id="path4197"
       inkscape:connector-curvature="0" /><path
       d="m 4335.5059,786.39459 0,-135.77815 -28.5231,0 0,135.77815 28.5231,0 z"
       id="path4199"
       inkscape:connector-curvature="0" /><path
       d="m 4463.4399,786.39459 0,-135.77815 -25.9835,0 0.5861,55.48345 c 0.1954,9.37748 1.1722,26.7649 2.149,37.31457 -2.7351,-9.76821 -8.0099,-24.0298 -14.8476,-38.48676 l -25.9835,-54.31126 -30.2814,0 0,135.77815 26.3741,0 -0.7814,-58.02318 c -0.1954,-11.33112 -0.3908,-27.35099 -1.3676,-38.48675 2.5398,8.40066 10.7451,27.54635 18.3643,44.54304 l 23.2483,51.96689 28.5232,0 z"
       id="path4201"
       inkscape:connector-curvature="0" /><path
       d="m 4527.2818,647.68598 -31.2582,4.49338 5.8609,91.03973 19.9272,0 5.4701,-95.53311 z m 0.7815,125.03312 c 0,-8.98676 -7.2285,-16.21524 -16.0199,-16.21524 -8.9867,0 -16.2152,7.22848 -16.2152,16.21524 0,8.98675 7.0331,16.21523 15.8245,16.21523 8.9868,0 16.4106,-7.22848 16.4106,-16.21523 z"
       id="path4203"
       inkscape:connector-curvature="0" /></g></svg>